<?xml version="1.0" standalone="no"?>
<!DOCTYPE svg PUBLIC "-//W3C//DTD SVG 20010904//EN"
 "http://www.w3.org/TR/2001/REC-SVG-20010904/DTD/svg10.dtd">
<svg version="1.0" xmlns="http://www.w3.org/2000/svg"
 width="512.000000pt" height="512.000000pt" viewBox="0 0 512.000000 512.000000"
 preserveAspectRatio="xMidYMid meet">
<metadata>
Created by potrace 1.14, written by Peter Selinger 2001-2017
</metadata>
<g transform="translate(0.000000,512.000000) scale(0.100000,-0.100000)"
fill="#000000" stroke="none">
<path d="M4708 5104 c-21 -7 -50 -21 -65 -31 -21 -14 -1006 -800 -1197 -956
-181 -147 -166 -138 -226 -131 -30 4 -64 8 -75 10 -34 7 -226 6 -300 -1 -217
-20 -485 -101 -682 -204 -143 -76 -230 -138 -335 -241 -114 -111 -192 -229
-230 -346 -33 -98 -39 -139 -39 -236 1 -143 61 -327 150 -457 22 -34 40 -62
39 -62 -2 -1 -336 -3 -743 -4 -518 -1 -752 -5 -781 -13 -95 -27 -180 -113
-205 -206 -38 -141 34 -291 169 -350 36 -16 42 -23 43 -50 0 -17 2 -47 5 -66
2 -19 6 -51 8 -70 22 -182 103 -416 210 -607 238 -426 713 -794 1233 -957 99
-31 263 -72 318 -80 36 -6 67 -11 129 -22 102 -18 506 -26 641 -12 476 49 925
226 1280 503 98 77 261 239 323 320 26 33 49 62 52 65 15 13 104 156 144 231
81 152 151 355 172 494 3 17 7 35 9 42 2 7 7 52 11 100 7 96 7 96 31 99 8 2
37 18 64 36 227 154 146 502 -124 536 -29 4 -379 7 -779 7 -401 -1 -728 1
-728 3 0 4 11 17 59 78 91 113 237 392 289 550 36 108 70 274 75 361 l4 62
309 247 c170 135 321 258 336 273 58 56 40 132 -33 134 -30 1 -56 -16 -199
-131 -91 -73 -169 -132 -175 -131 -5 0 -33 30 -61 67 -29 37 -70 90 -93 118
l-41 52 133 106 c72 58 137 109 142 114 6 4 80 64 165 132 85 69 164 132 175
141 152 126 398 318 425 331 45 23 84 23 134 -2 53 -26 78 -62 84 -120 7 -78
-13 -106 -176 -237 -309 -248 -312 -251 -312 -287 0 -39 35 -76 72 -76 21 0
148 86 178 120 3 3 36 30 75 60 273 214 305 254 313 391 4 70 2 82 -27 142
-34 71 -88 124 -157 153 -49 21 -167 25 -216 8z m-1114 -1086 c34 -36 176
-218 176 -227 0 -5 -30 -33 -67 -63 -38 -29 -77 -61 -88 -71 -15 -14 -21 -15
-30 -5 -36 39 -175 218 -177 227 -2 9 156 149 170 151 2 0 9 -6 16 -12z m-419
-176 l50 -7 -113 -43 c-162 -62 -394 -180 -557 -283 -372 -234 -655 -495 -769
-709 l-33 -61 -17 61 c-25 90 -27 98 -27 177 0 167 71 316 220 463 113 112
281 217 469 293 66 27 215 72 272 83 137 25 181 31 239 33 36 1 67 3 68 4 4 4
149 -4 198 -11z m205 -177 l30 -38 -31 -56 c-70 -125 -145 -228 -283 -388
-278 -324 -620 -602 -868 -705 -64 -27 -86 -31 -178 -33 l-105 -2 -27 35 c-95
119 -32 272 211 512 263 262 709 543 1051 665 58 20 114 41 125 45 31 12 42 7
75 -35z m124 -222 c-23 -236 -120 -499 -269 -728 -46 -71 -76 -110 -183 -235
l-30 -35 -260 -1 c-150 0 -258 4 -255 9 3 5 30 24 60 44 97 62 295 227 423
354 194 191 325 347 445 527 37 56 69 102 70 102 1 0 1 -17 -1 -37z m1269
-1172 c21 -12 43 -39 55 -65 34 -71 14 -135 -58 -183 l-32 -23 -1030 0 c-645
0 -1036 -4 -1048 -10 -10 -5 -23 -24 -29 -41 -9 -25 -8 -37 6 -59 9 -16 26
-31 37 -34 12 -3 454 -6 984 -6 l963 0 -6 -67 c-74 -833 -860 -1517 -1860
-1620 -145 -15 -503 -7 -610 13 -10 2 -37 6 -60 9 -22 4 -68 13 -101 20 -34 8
-73 16 -85 19 -44 7 -234 68 -246 79 -7 5 -13 7 -13 4 0 -9 -169 66 -271 120
-260 138 -458 300 -634 518 -123 153 -248 384 -289 535 -8 30 -19 71 -25 90
-9 32 -16 68 -27 140 -2 14 -6 51 -10 83 l-6 57 976 0 c722 0 982 3 1001 12
33 15 47 63 28 101 -7 15 -15 28 -16 29 -1 2 -477 5 -1057 8 -996 5 -1057 6
-1083 23 -76 49 -89 158 -28 221 18 18 46 37 63 42 17 5 1015 9 2253 8 l2223
-1 35 -22z"/>
<path d="M1326 4367 c-14 -14 -22 -33 -21 -48 1 -13 3 -30 4 -36 2 -19 55 -43
82 -38 54 10 77 82 39 123 -28 29 -74 29 -104 -1z"/>
<path d="M1064 3908 c-86 -45 -134 -121 -135 -211 -1 -85 39 -156 115 -205 35
-23 52 -27 117 -27 67 0 81 4 125 30 30 19 60 49 79 79 26 43 30 59 30 121 0
62 -4 78 -30 121 -45 72 -110 108 -195 111 -51 1 -77 -3 -106 -19z m139 -139
c25 -11 47 -47 47 -74 0 -72 -94 -112 -145 -60 -34 33 -34 87 0 120 26 27 60
32 98 14z"/>
<path d="M551 3824 c-42 -54 -13 -118 54 -118 67 0 96 64 54 118 -15 19 -30
26 -54 26 -24 0 -39 -7 -54 -26z"/>
<path d="M460 3304 c-117 -44 -174 -119 -174 -229 0 -188 209 -300 363 -194
152 103 136 326 -27 405 -37 18 -134 28 -162 18z m120 -172 c76 -76 -35 -189
-116 -118 -57 49 -19 146 57 146 20 0 40 -10 59 -28z"/>
<path d="M1080 2879 c-31 -13 -40 -26 -40 -65 0 -80 113 -101 141 -27 13 35
-4 77 -37 92 -29 13 -31 13 -64 0z"/>
</g>
</svg>
